# Blender 4.4.0
# www.blender.org
mtllib Chessboard.mtl
o Board
v -1.422937 -0.558195 12.149628
v -1.422937 0.000529 12.149628
v -1.579838 -0.558195 -1.574158
v -1.422937 0.000529 -1.412028
v 12.138719 -0.558195 12.149628
v 12.138719 0.000529 12.149628
v 11.981817 -0.558195 -1.574158
v 12.138719 0.000529 -1.412028
v -0.719972 0.000529 11.446663
v -0.719972 0.000529 -0.709062
v 11.435754 0.000529 -0.709062
v 11.435754 0.000529 11.446663
v -1.422937 0.000529 12.149628
v -1.422937 0.000529 -1.412028
v 12.138719 0.000529 -1.412028
v 12.138719 0.000529 12.149628
v -0.719972 0.000529 5.368800
v 5.357891 0.000529 -0.709062
v 11.435754 0.000529 5.368800
v 5.357891 0.000529 11.446663
v 5.357891 0.000529 5.368800
v -0.719972 0.000529 2.329869
v 8.396823 0.000529 -0.709062
v 11.435754 0.000529 8.407732
v 2.318960 0.000529 11.446663
v -0.719972 0.000529 8.407732
v 2.318960 0.000529 -0.709062
v 11.435754 0.000529 2.329869
v 8.396823 0.000529 11.446663
v 5.357891 0.000529 8.407732
v 5.357891 0.000529 2.329869
v 8.396823 0.000529 5.368800
v 2.318960 0.000529 5.368800
v 2.318960 0.000529 2.329869
v 8.396823 0.000529 2.329869
v 8.396823 0.000529 8.407732
v 2.318960 0.000529 8.407732
v -0.719972 0.000529 0.810403
v 9.916288 0.000529 -0.709062
v 11.435754 0.000529 9.927197
v 0.799494 0.000529 11.446663
v -0.719972 0.000529 6.888266
v 3.838425 0.000529 -0.709062
v 11.435754 0.000529 3.849335
v 6.877357 0.000529 11.446663
v 5.357891 0.000529 9.927197
v 5.357891 0.000529 3.849335
v 9.916288 0.000529 5.368800
v 3.838425 0.000529 5.368800
v -0.719972 0.000529 3.849335
v 6.877357 0.000529 -0.709062
v 11.435754 0.000529 6.888266
v 3.838425 0.000529 11.446663
v -0.719972 0.000529 9.927197
v 0.799494 0.000529 -0.709062
v 11.435754 0.000529 0.810403
v 9.916288 0.000529 11.446663
v 5.357891 0.000529 6.888266
v 5.357891 0.000529 0.810403
v 6.877357 0.000529 5.368800
v 0.799494 0.000529 5.368800
v 2.318960 0.000529 3.849335
v 2.318960 0.000529 0.810403
v 3.838425 0.000529 2.329869
v 0.799494 0.000529 2.329869
v 8.396823 0.000529 3.849335
v 8.396823 0.000529 0.810403
v 9.916288 0.000529 2.329869
v 6.877357 0.000529 2.329869
v 8.396823 0.000529 9.927197
v 8.396823 0.000529 6.888266
v 9.916288 0.000529 8.407732
v 6.877357 0.000529 8.407732
v 2.318960 0.000529 9.927197
v 2.318960 0.000529 6.888266
v 3.838425 0.000529 8.407732
v 0.799494 0.000529 8.407732
v 0.799494 0.000529 6.888266
v 3.838425 0.000529 6.888266
v 3.838425 0.000529 9.927197
v 6.877357 0.000529 6.888266
v 9.916288 0.000529 6.888266
v 9.916288 0.000529 9.927197
v 6.877357 0.000529 0.810403
v 9.916288 0.000529 0.810403
v 9.916288 0.000529 3.849335
v 0.799494 0.000529 0.810403
v 3.838425 0.000529 0.810403
v 3.838425 0.000529 3.849335
v 0.799494 0.000529 3.849335
v 6.877357 0.000529 3.849335
v 6.877357 0.000529 9.927197
v 0.799494 0.000529 9.927197
vn -0.9904 0.1382 0.0057
vn -0.0000 0.2787 -0.9604
vn 0.9904 -0.1382 -0.0057
vn -0.0000 -0.0000 1.0000
vn -0.0000 -1.0000 -0.0000
vn -0.0000 1.0000 -0.0000
vt 0.375000 0.000000
vt 0.625000 0.000000
vt 0.625000 0.250000
vt 0.375000 0.250000
vt 0.625000 0.500000
vt 0.375000 0.500000
vt 0.625000 0.750000
vt 0.375000 0.750000
vt 0.625000 1.000000
vt 0.375000 1.000000
vt 0.125000 0.500000
vt 0.125000 0.750000
vt 0.834031 0.709031
vt 0.862041 0.709031
vt 0.862041 0.737041
vt 0.834031 0.737041
vt 0.862041 0.681021
vt 0.862041 0.653010
vt 0.862041 0.625000
vt 0.862041 0.596990
vt 0.862041 0.568979
vt 0.862041 0.540969
vt 0.862041 0.512959
vt 0.875000 0.500000
vt 0.875000 0.750000
vt 0.834031 0.512959
vt 0.806021 0.512959
vt 0.778010 0.512959
vt 0.750000 0.512959
vt 0.721990 0.512959
vt 0.693979 0.512959
vt 0.665969 0.512959
vt 0.637959 0.512959
vt 0.637959 0.540969
vt 0.637959 0.568979
vt 0.637959 0.596990
vt 0.637959 0.625000
vt 0.637959 0.653010
vt 0.637959 0.681021
vt 0.637959 0.709031
vt 0.637959 0.737041
vt 0.665969 0.737041
vt 0.693979 0.737041
vt 0.721990 0.737041
vt 0.750000 0.737041
vt 0.778010 0.737041
vt 0.806021 0.737041
vt 0.721990 0.709031
vt 0.750000 0.709031
vt 0.721990 0.596990
vt 0.750000 0.596990
vt 0.750000 0.625000
vt 0.721990 0.625000
vt 0.834031 0.596990
vt 0.834031 0.625000
vt 0.778010 0.596990
vt 0.806021 0.596990
vt 0.806021 0.625000
vt 0.778010 0.625000
vt 0.778010 0.540969
vt 0.806021 0.540969
vt 0.806021 0.568979
vt 0.778010 0.568979
vt 0.834031 0.540969
vt 0.834031 0.568979
vt 0.665969 0.596990
vt 0.693979 0.596990
vt 0.693979 0.625000
vt 0.665969 0.625000
vt 0.665969 0.540969
vt 0.693979 0.540969
vt 0.693979 0.568979
vt 0.665969 0.568979
vt 0.721990 0.540969
vt 0.750000 0.540969
vt 0.750000 0.568979
vt 0.721990 0.568979
vt 0.665969 0.709031
vt 0.693979 0.709031
vt 0.665969 0.653010
vt 0.693979 0.653010
vt 0.693979 0.681021
vt 0.665969 0.681021
vt 0.721990 0.653010
vt 0.750000 0.653010
vt 0.750000 0.681021
vt 0.721990 0.681021
vt 0.778010 0.709031
vt 0.806021 0.709031
vt 0.778010 0.653010
vt 0.806021 0.653010
vt 0.806021 0.681021
vt 0.778010 0.681021
vt 0.834031 0.653010
vt 0.834031 0.681021
s 0
usemtl Wood
f 1/1/1 2/2/1 4/3/1 3/4/1
f 3/4/2 4/3/2 8/5/2 7/6/2
f 7/6/3 8/5/3 6/7/3 5/8/3
f 5/8/4 6/7/4 2/9/4 1/10/4
f 3/11/5 7/6/5 5/8/5 1/12/5
f 8/5/6 4/3/6 14/3/6 15/5/6
f 6/7/6 8/5/6 15/5/6 16/7/6
f 4/3/6 2/2/6 13/2/6 14/3/6
f 2/9/6 6/7/6 16/7/6 13/9/6
f 9/15/6 54/14/6 26/17/6 42/18/6 17/19/6 50/20/6 22/21/6 38/22/6 10/23/6 14/24/6 13/25/6
f 10/23/6 55/26/6 27/27/6 43/28/6 18/29/6 51/30/6 23/31/6 39/32/6 11/33/6 15/5/6 14/24/6
f 11/33/6 56/34/6 28/35/6 44/36/6 19/37/6 52/38/6 24/39/6 40/40/6 12/41/6 16/7/6 15/5/6
f 12/41/6 57/42/6 29/43/6 45/44/6 20/45/6 53/46/6 25/47/6 41/16/6 9/15/6 13/25/6 16/7/6
usemtl White
f 93/13/6 54/14/6 9/15/6 41/16/6
f 92/48/6 46/49/6 20/45/6 45/44/6
f 91/50/6 47/51/6 21/52/6 60/53/6
f 90/54/6 50/20/6 17/19/6 61/55/6
f 89/56/6 62/57/6 33/58/6 49/59/6
f 88/60/6 63/61/6 34/62/6 64/63/6
f 87/64/6 38/22/6 22/21/6 65/65/6
f 86/66/6 66/67/6 32/68/6 48/69/6
f 85/70/6 67/71/6 35/72/6 68/73/6
f 84/74/6 59/75/6 31/76/6 69/77/6
f 83/78/6 70/79/6 29/43/6 57/42/6
f 82/80/6 71/81/6 36/82/6 72/83/6
f 81/84/6 58/85/6 30/86/6 73/87/6
f 80/88/6 74/89/6 25/47/6 53/46/6
f 79/90/6 75/91/6 37/92/6 76/93/6
f 78/94/6 42/18/6 26/17/6 77/95/6
f 33/58/6 61/55/6 78/94/6 75/91/6
f 21/52/6 49/59/6 79/90/6 58/85/6
f 30/86/6 76/93/6 80/88/6 46/49/6
f 32/68/6 60/53/6 81/84/6 71/81/6
f 19/37/6 48/69/6 82/80/6 52/38/6
f 24/39/6 72/83/6 83/78/6 40/40/6
f 23/31/6 51/30/6 84/74/6 67/71/6
f 11/33/6 39/32/6 85/70/6 56/34/6
f 28/35/6 68/73/6 86/66/6 44/36/6
f 27/27/6 55/26/6 87/64/6 63/61/6
f 18/29/6 43/28/6 88/60/6 59/75/6
f 31/76/6 64/63/6 89/56/6 47/51/6
f 34/62/6 65/65/6 90/54/6 62/57/6
f 35/72/6 69/77/6 91/50/6 66/67/6
f 36/82/6 73/87/6 92/48/6 70/79/6
f 37/92/6 77/95/6 93/13/6 74/89/6
usemtl Black
f 75/91/6 78/94/6 77/95/6 37/92/6
f 61/55/6 17/19/6 42/18/6 78/94/6
f 58/85/6 79/90/6 76/93/6 30/86/6
f 49/59/6 33/58/6 75/91/6 79/90/6
f 46/49/6 80/88/6 53/46/6 20/45/6
f 76/93/6 37/92/6 74/89/6 80/88/6
f 71/81/6 81/84/6 73/87/6 36/82/6
f 60/53/6 21/52/6 58/85/6 81/84/6
f 52/38/6 82/80/6 72/83/6 24/39/6
f 48/69/6 32/68/6 71/81/6 82/80/6
f 40/40/6 83/78/6 57/42/6 12/41/6
f 72/83/6 36/82/6 70/79/6 83/78/6
f 67/71/6 84/74/6 69/77/6 35/72/6
f 51/30/6 18/29/6 59/75/6 84/74/6
f 56/34/6 85/70/6 68/73/6 28/35/6
f 39/32/6 23/31/6 67/71/6 85/70/6
f 44/36/6 86/66/6 48/69/6 19/37/6
f 68/73/6 35/72/6 66/67/6 86/66/6
f 63/61/6 87/64/6 65/65/6 34/62/6
f 55/26/6 10/23/6 38/22/6 87/64/6
f 59/75/6 88/60/6 64/63/6 31/76/6
f 43/28/6 27/27/6 63/61/6 88/60/6
f 47/51/6 89/56/6 49/59/6 21/52/6
f 64/63/6 34/62/6 62/57/6 89/56/6
f 62/57/6 90/54/6 61/55/6 33/58/6
f 65/65/6 22/21/6 50/20/6 90/54/6
f 66/67/6 91/50/6 60/53/6 32/68/6
f 69/77/6 31/76/6 47/51/6 91/50/6
f 70/79/6 92/48/6 45/44/6 29/43/6
f 73/87/6 30/86/6 46/49/6 92/48/6
f 74/89/6 93/13/6 41/16/6 25/47/6
f 77/95/6 26/17/6 54/14/6 93/13/6
